{"title":"Taylor Swift - Wildest Dreams [Official Music Video] JRR","uid":12319330,"size":42254626,"categoryP":"audio","categoryS":"other","magnet":"?xt=urn:btih:b2b48660e65eedcf761a1ea02935a0bc29e0556c&amp;dn=Taylor+Swift+-+Wildest+Dreams+%5BOfficial+Music+Video%5D+JRR&amp;tr=udp%3A%2F%2Ftracker.openbittorrent.com%3A80&amp;tr=udp%3A%2F%2Fopen.demonii.com%3A1337&amp;tr=udp%3A%2F%2Ftracker.coppersurfer.tk%3A6969&amp;tr=udp%3A%2F%2Fexodus.desync.com%3A6969","seeders":1,"leechers":0,"uploader":"JRRtv","files":1,"time":1441039939,"description":"[img]http://i.imgur.com/iaHxoJn.png[/img]\n\n[u][b]General[/b][/u] \nFormat : MPEG-4 \nFile size : 40.3 MiB \nDuration : 3mn 54s \nOverall bit rate mode : Variable \nOverall bit rate : 1 441 Kbps \n\n[u][b]Video[/b][/u] \nFormat : AVC \nFormat/Info : Advanced Video Codec \nFormat profile : High@L4 \nFormat settings, ReFrames : 12 frames \nDuration : 3mn 54s \nBit rate : 1 253 Kbps \nWidth : 1 280 pixels \nHeight : 540 pixels \nDisplay aspect ratio : 2.40:1 \nFrame rate mode : Variable \nFrame rate : 23.976 fps \nColor space : YUV \nChroma subsampling : 4:2:0 \nBit depth : 8 bits \nScan type : Progressive \nBits/(Pixel*Frame) : 0.076 \nStream size : 35.1 MiB (87%) \n\n[u][b]Audio[/b][/u] \nFormat : AAC \nBit rate : 179 Kbps \nChannel(s) : 2 channels \nChannel positions : Front: L R \nSampling rate : 48.0 KHz \nStream size : 5.01 MiB (12%) \nLanguage : English \n\n[u][b]Subtitles[/b][/u]\nType : Soft Subs\nLanguage : English\n(Note : Subtitles are not default. Please enable them.) \n\n[img]http://i.imgur.com/F1JvgLq.png[/img]\n[img]http://i.imgur.com/Klc6760.png[/img]\n[img]http://i.imgur.com/ONS1jfY.png[/img]\n[img]http://i.imgur.com/WRLr0Zw.png[/img]\n[img]http://i.imgur.com/kHEeNdA.png[/img]","torrent":{"xt":"urn:btih:b2b48660e65eedcf761a1ea02935a0bc29e0556c","amp;dn":"Taylor+Swift+-+Wildest+Dreams+%5BOfficial+Music+Video%5D+JRR","amp;tr":["udp%3A%2F%2Ftracker.openbittorrent.com%3A80","udp%3A%2F%2Fopen.demonii.com%3A1337","udp%3A%2F%2Ftracker.coppersurfer.tk%3A6969","udp%3A%2F%2Fexodus.desync.com%3A6969"],"infoHash":"b2b48660e65eedcf761a1ea02935a0bc29e0556c","infoHashBuffer":{"type":"Buffer","data":[178,180,134,96,230,94,237,207,118,26,30,160,41,53,160,188,41,224,85,108]},"announce":[],"urlList":[]}}